<svg viewBox="0 0 800 320" xmlns="http://www.w3.org/2000/svg" role="img">
<defs>
<linearGradient id="bg" x1="0" y1="0" x2="1" y2="1">
  <stop offset="0%" stop-color="#3a2416"/>
  <stop offset="100%" stop-color="#1c1712"/>
</linearGradient>
<linearGradient id="bread" x1="0" y1="0" x2="0" y2="1">
  <stop offset="0%" stop-color="#e7b463"/><stop offset="100%" stop-color="#c98a3c"/>
</linearGradient>
</defs>
<rect width="800" height="320" fill="url(#bg)"/>
<g opacity=".08" fill="#f4ead6">
  <circle cx="60" cy="40" r="3"/><circle cx="120" cy="90" r="3"/><circle cx="40" cy="200" r="3"/>
  <circle cx="740" cy="60" r="3"/><circle cx="700" cy="260" r="3"/><circle cx="770" cy="150" r="3"/>
  <circle cx="200" cy="280" r="3"/><circle cx="600" cy="30" r="3"/>
</g>
<g transform="translate(400,160)">
  <rect x="-260" y="-46" width="520" height="92" rx="46" fill="url(#bread)"/>
  <rect x="-250" y="-14" width="500" height="28" fill="#f4ead6" opacity=".9"/>
  <rect x="-250" y="4" width="500" height="16" fill="#c22a2f" opacity=".85"/>
  <g fill="#3f5a2f" opacity=".9">
    <path d="M -230 -18 q10 -16 22 0 q10 14 -4 16 q-18 2 -18 -16 Z"/>
    <path d="M -170 -20 q10 -16 22 0 q10 14 -4 16 q-18 2 -18 -16 Z"/>
    <path d="M -100 -18 q10 -16 22 0 q10 14 -4 16 q-18 2 -18 -16 Z"/>
    <path d="M -20 -20 q10 -16 22 0 q10 14 -4 16 q-18 2 -18 -16 Z"/>
    <path d="M 60 -18 q10 -16 22 0 q10 14 -4 16 q-18 2 -18 -16 Z"/>
    <path d="M 140 -20 q10 -16 22 0 q10 14 -4 16 q-18 2 -18 -16 Z"/>
    <path d="M 210 -18 q10 -16 22 0 q10 14 -4 16 q-18 2 -18 -16 Z"/>
  </g>
  <g fill="#f4ead6" opacity=".8">
    <circle cx="-200" cy="-40" r="4"/><circle cx="-140" cy="-42" r="4"/><circle cx="-70" cy="-40" r="4"/>
    <circle cx="0" cy="-42" r="4"/><circle cx="70" cy="-40" r="4"/><circle cx="140" cy="-42" r="4"/><circle cx="200" cy="-40" r="4"/>
  </g>
</g>
</svg>